<?xml version="1.0" encoding="utf-8"?>
<!-- Generator: Adobe Illustrator 22.1.0, SVG Export Plug-In . SVG Version: 6.00 Build 0)  -->
<svg version="1.1" id="Layer_1" xmlns="http://www.w3.org/2000/svg" xmlns:xlink="http://www.w3.org/1999/xlink" x="0px" y="0px"
	 viewBox="0 0 393.2 146" style="enable-background:new 0 0 393.2 146;" xml:space="preserve">
<style type="text/css">
	.st0{clip-path:url(#SVGID_2_);fill:none;stroke:#FFFFFF;stroke-miterlimit:10;}
	.st1{clip-path:url(#SVGID_2_);fill:#FFFFFF;}
	.st2{fill:#FFFFFF;}
	.st3{fill:none;}
	.st4{clip-path:url(#SVGID_4_);fill:none;stroke:#FFFFFF;stroke-miterlimit:10;}
	.st5{clip-path:url(#SVGID_4_);fill:#FFFFFF;}
	.st6{fill:none;stroke:#FFFFFF;stroke-width:2;stroke-miterlimit:10;}
</style>
<g>
	<g>
		<g>
			<path d="M147.8,130.5h8.9v-5.9C155.3,125.5,150.2,128.9,147.8,130.5"/>
		</g>
		<g>
			<path d="M17.1,125.3v5.9H26C23.6,129.7,18.5,126.3,17.1,125.3"/>
		</g>
		<g>
			<path d="M157.8,18.8v-4c-1,0.6-60.2,33.7-61.2,34.3l0,0v4.3l56.9,34.6c-1.9,1.2-4.3,2.9-7.2,4.8l-0.4-0.2l0,0
				c-2.6-1.6-49.4-30-49.4-30v4.3c3,1.9,44.5,27.1,46.4,28.2c-2.2,1.5-4.6,3.1-7.1,4.8L96.6,75.9v4.3l35,21.3l0,0l0.8,0.5
				c-2.4,1.6-4.8,3.2-7.2,4.8L96.6,89.3v4.3l25.4,15.4c-12.9,8.6-24.6,16.5-25.9,17.3l0.1,3.6c4.8-3.2,57.7-38.5,60.8-40.6l-0.1-3.7
				h0L142.6,77c1-0.5,15.1-8.5,15.2-8.6v-4c-1.7,1-17,9.5-18.7,10.5l-7.2-4.4c1.6-0.9,24.7-13.8,25.8-14.5v-4
				c-2.2,1.2-27.2,15.2-29.3,16.4l-7.2-4.4c1.6-0.9,35.1-19.6,36.5-20.4v-4c-2,1.1-31.4,17.6-39.9,22.4l-7.2-4.4
				c1.8-1,45.4-25.5,47.1-26.4v-4C147.5,33,109,54.5,107.2,55.5l-7.2-4.4l56.6-31.7L157.8,18.8z"/>
		</g>
		<g>
			<path d="M114.9,130.5c7.5-4.9,31.8-21.1,41.8-27.7v-4.2c-14.3,9.5-34.1,22.6-48.1,32H114.9z"/>
		</g>
		<g>
			<path d="M134.6,130.5c1.4-0.9,20.6-13.7,22.2-14.7v-4.2c-9.1,6.1-19.4,12.9-28.5,18.9H134.6z"/>
		</g>
		<g>
			<polygon points="61.2,86.4 58.9,87.8 58.9,92.1 61.2,90.7 			"/>
		</g>
		<g>
			<polygon points="68.4,86.3 77.3,80.9 77.3,76.6 68.4,82 			"/>
		</g>
		<g>
			<path d="M17.1,103.5c10,6.7,34.3,22.8,41.8,27.7h6.3c-14-9.3-33.8-22.4-48.1-32V103.5z"/>
		</g>
		<g>
			<path d="M17.1,116.5c1.5,1,20.8,13.8,22.2,14.7h6.4c-9.1-6.1-19.4-12.9-28.5-18.9V116.5z"/>
		</g>
		<g>
			<path d="M77.3,94.4v-4.3c-2.3,1.4-10.4,6.3-12.5,7.6c0-3.6,0-9.8,0-13.4l0,0l0-0.6l0-8.5l12.5-7.6v-4.3L38.4,86.8l0,0
				c-2.6,1.6-10.9,6.6-10.9,6.6c-2.8-1.9-5.3-3.5-7.1-4.8l56.9-34.6v-4.3l0,0C76,49.1,17.2,16.1,16,15.5v4l1.2,0.7l56.6,31.7
				l-7.2,4.4C65,55.3,26.2,33.6,16,27.9v4c1.7,0.9,45.3,25.4,47.1,26.4l-7.2,4.4C47.4,57.9,18,41.5,16,40.4v4
				c1.4,0.8,34.9,19.5,36.5,20.4l-7.2,4.4C43.2,68,18.2,54,16,52.8v4c1.2,0.7,24.2,13.6,25.8,14.5l-7.2,4.4c-1.7-1-17-9.5-18.7-10.5
				v4c0.1,0.1,14.3,8,15.2,8.6L17,86.4l0,0l-0.1,3.7c3.1,2.1,56,37.4,60.8,40.6l0.1-3.6c-1.2-0.8-13-8.7-25.9-17.3
				C51.9,109.8,70.1,98.7,77.3,94.4 M54.6,81.3l7.6-4.6l0,8.5c0,3.5,0,10.5,0,14.1c-1.1,0.6-5,3-5.9,3.6l0,0l-1.7,1L54.6,81.3z
				 M41.4,102.7l7-4.3v-4.3L38,100.5c-2.5-1.7-4.9-3.3-7.1-4.8l21.3-12.9c0,7,0,15.6,0,22.6l-3.6,2.2
				C46.2,105.9,43.8,104.3,41.4,102.7"/>
		</g>
		<g>
			<path d="M188.2,93.9l-6-8.6c-0.3,0-0.6,0-1.1,0h-6.6v8.6h-5.5V64.5H181c2.5,0,4.8,0.4,6.7,1.3c1.9,0.8,3.3,2,4.4,3.6
				c1,1.6,1.5,3.4,1.5,5.6c0,2.2-0.5,4.1-1.6,5.7s-2.6,2.8-4.6,3.6l6.8,9.7H188.2z M186.2,70.6c-1.2-1-3-1.5-5.4-1.5h-6.4v11.7h6.4
				c2.4,0,4.2-0.5,5.4-1.5c1.2-1,1.8-2.5,1.8-4.4C188,73.1,187.4,71.6,186.2,70.6z"/>
			<path d="M226.8,89.3v4.6h-22.1V64.5h21.5v4.6h-16v7.7h14.2v4.5h-14.2v8.1H226.8z"/>
			<path d="M256.9,87.1h-14.7l-2.9,6.8h-5.6l13.2-29.4h5.4l13.3,29.4h-5.7L256.9,87.1z M255.1,82.8L249.6,70l-5.5,12.9H255.1z"/>
			<path d="M274.4,64.5h5.5v24.8h15.4v4.6h-20.9V64.5z"/>
			<path d="M304.6,64.5h5.5v29.4h-5.5V64.5z"/>
			<path d="M329,69.1h-9.8v-4.6h25v4.6h-9.8v24.8H329V69.1z"/>
			<path d="M365.7,83.5v10.4h-5.5V83.6l-11.6-19.1h5.8l8.6,14.3l8.7-14.3h5.4L365.7,83.5z"/>
		</g>
		<g>
			<path d="M172,130.2c-1.7-0.6-3-1.4-4-2.4l1-2c0.9,0.9,2.1,1.6,3.6,2.2c1.5,0.6,3,0.8,4.6,0.8c2.2,0,3.9-0.4,5-1.2
				s1.7-1.9,1.7-3.2c0-1-0.3-1.8-0.9-2.4c-0.6-0.6-1.4-1.1-2.2-1.4c-0.9-0.3-2.1-0.7-3.7-1.1c-1.9-0.5-3.4-0.9-4.5-1.4
				c-1.1-0.4-2.1-1.1-2.9-2c-0.8-0.9-1.2-2.1-1.2-3.7c0-1.3,0.3-2.4,1-3.5c0.7-1,1.7-1.9,3.1-2.5c1.4-0.6,3.1-0.9,5.1-0.9
				c1.4,0,2.8,0.2,4.2,0.6c1.4,0.4,2.6,0.9,3.6,1.6l-0.9,2.1c-1-0.7-2.2-1.2-3.4-1.6c-1.2-0.3-2.4-0.5-3.5-0.5c-2.2,0-3.8,0.4-5,1.3
				c-1.1,0.8-1.7,1.9-1.7,3.3c0,1,0.3,1.8,0.9,2.4c0.6,0.6,1.4,1.1,2.3,1.4c0.9,0.3,2.2,0.7,3.7,1.1c1.8,0.5,3.3,0.9,4.5,1.3
				c1.1,0.4,2.1,1.1,2.9,2s1.2,2.1,1.2,3.6c0,1.3-0.3,2.4-1,3.4c-0.7,1-1.7,1.9-3.1,2.5c-1.4,0.6-3.1,0.9-5.2,0.9
				C175.5,131.1,173.7,130.8,172,130.2z"/>
			<path d="M219.6,129.5c-2-1.1-3.6-2.6-4.7-4.6c-1.1-1.9-1.7-4.1-1.7-6.5c0-2.4,0.6-4.6,1.7-6.5c1.1-1.9,2.7-3.5,4.7-4.6
				c2-1.1,4.2-1.6,6.7-1.6c1.9,0,3.6,0.3,5.1,0.9c1.6,0.6,2.9,1.5,4,2.7l-1.7,1.7c-2-2-4.4-3-7.4-3c-2,0-3.8,0.5-5.4,1.4
				c-1.6,0.9-2.9,2.1-3.8,3.7c-0.9,1.6-1.4,3.3-1.4,5.3c0,2,0.5,3.7,1.4,5.3c0.9,1.6,2.2,2.8,3.8,3.7c1.6,0.9,3.4,1.4,5.4,1.4
				c3,0,5.5-1,7.4-3l1.7,1.7c-1.1,1.2-2.4,2.1-4,2.7c-1.6,0.6-3.3,0.9-5.2,0.9C223.8,131.1,221.6,130.6,219.6,129.5z"/>
			<path d="M279.2,124.2h-13.9l-3,6.7h-2.8l11.4-25h2.6l11.4,25h-2.8L279.2,124.2z M278.2,122.1l-6-13.4l-6,13.4H278.2z"/>
			<path d="M312.1,105.9h2.6v22.7h14v2.3h-16.7V105.9z"/>
			<path d="M373.8,128.6v2.3h-17.7v-25h17.2v2.3h-14.5v8.9h12.9v2.3h-12.9v9.3H373.8z"/>
		</g>
	</g>
	<g>
		<path d="M393.2,146H0V0h393.2V146z M2,144h389.2V2H2V144z"/>
	</g>
</g>
</svg>
