<?xml version="1.0" encoding="utf-8"?>
<!-- Generator: Adobe Illustrator 22.1.0, SVG Export Plug-In . SVG Version: 6.00 Build 0)  -->
<svg version="1.1" id="Layer_1" xmlns="http://www.w3.org/2000/svg" xmlns:xlink="http://www.w3.org/1999/xlink" x="0px" y="0px"
	 viewBox="0 0 477.3 116.5" style="enable-background:new 0 0 477.3 116.5;" xml:space="preserve">
<style type="text/css">
	.st0{clip-path:url(#SVGID_2_);fill:none;stroke:#FFFFFF;stroke-miterlimit:10;}
	.st1{clip-path:url(#SVGID_2_);fill:#FFFFFF;}
	.st2{fill:#FFFFFF;}
	.st3{fill:none;}
	.st4{clip-path:url(#SVGID_4_);fill:none;stroke:#FFFFFF;stroke-miterlimit:10;}
	.st5{clip-path:url(#SVGID_4_);fill:#FFFFFF;}
	.st6{fill:none;stroke:#FFFFFF;stroke-width:2;stroke-miterlimit:10;}
</style>
<g>
	<g>
		<g>
			<path class="st2" d="M131.8,115.8h8.9v-5.9C139.3,110.8,134.2,114.2,131.8,115.8"/>
		</g>
		<g>
			<path class="st2" d="M1.1,110.6v5.9H10C7.6,114.9,2.5,111.5,1.1,110.6"/>
		</g>
		<g>
			<path class="st2" d="M141.8,4V0c-1,0.6-60.2,33.7-61.2,34.3l0,0v4.3l56.9,34.6c-1.9,1.2-4.3,2.9-7.2,4.8l-0.4-0.2l0,0
				c-2.6-1.6-49.4-30-49.4-30V52c3,1.9,44.5,27.1,46.4,28.2c-2.2,1.5-4.6,3.1-7.1,4.8L80.6,61.2v4.3l35,21.3l0,0l0.8,0.5
				c-2.4,1.6-4.8,3.2-7.2,4.8L80.6,74.6v4.3l25.4,15.4c-12.9,8.6-24.6,16.5-25.9,17.3l0.1,3.6C85,112,137.8,76.7,141,74.6l-0.1-3.7
				h0l-14.2-8.7c1-0.5,15.1-8.5,15.2-8.6v-4c-1.7,1-17,9.5-18.7,10.5l-7.2-4.4c1.6-0.9,24.7-13.8,25.8-14.5v-4
				c-2.2,1.2-27.2,15.2-29.3,16.4l-7.2-4.4c1.6-0.9,35.1-19.6,36.5-20.4v-4c-2,1.1-31.4,17.6-39.9,22.4l-7.2-4.4
				c1.8-1,45.4-25.5,47.1-26.4v-4C131.5,18.2,93,39.8,91.2,40.8L84,36.4l56.6-31.7L141.8,4z"/>
		</g>
		<g>
			<path class="st2" d="M98.9,115.8c7.5-4.9,31.8-21.1,41.8-27.7v-4.2c-14.3,9.5-34.1,22.6-48.1,32H98.9z"/>
		</g>
		<g>
			<path class="st2" d="M118.6,115.8c1.4-0.9,20.6-13.7,22.2-14.7v-4.2c-9.1,6.1-19.4,12.9-28.5,18.9H118.6z"/>
		</g>
		<g>
			<polygon class="st2" points="45.2,71.7 42.9,73.1 42.9,77.4 45.2,76 			"/>
		</g>
		<g>
			<polygon class="st2" points="52.4,71.6 61.3,66.2 61.3,61.9 52.4,67.3 			"/>
		</g>
		<g>
			<path class="st2" d="M1.1,88.8c10,6.7,34.3,22.8,41.8,27.7h6.3c-14-9.3-33.8-22.4-48.1-32V88.8z"/>
		</g>
		<g>
			<path class="st2" d="M1.1,101.8c1.5,1,20.8,13.8,22.2,14.7h6.4c-9.1-6.1-19.4-12.9-28.5-18.9V101.8z"/>
		</g>
		<g>
			<path class="st2" d="M61.3,79.6v-4.3C59,76.7,50.8,81.7,48.7,83c0-3.6,0-9.8,0-13.4l0,0l0-0.6l0-8.5l12.5-7.6v-4.3L22.4,72.1l0,0
				c-2.6,1.6-10.9,6.6-10.9,6.6c-2.8-1.9-5.3-3.5-7.1-4.8l56.9-34.6V35l0,0C60,34.4,1.2,1.4,0,0.7v4l1.2,0.7l56.6,31.7l-7.2,4.4
				C49,40.6,10.2,18.9,0,13.2v4c1.7,0.9,45.3,25.4,47.1,26.4L39.9,48C31.4,43.2,2,26.8,0,25.6v4c1.4,0.8,34.9,19.5,36.5,20.4
				l-7.2,4.4C27.2,53.3,2.2,39.3,0,38.1v4c1.2,0.7,24.2,13.6,25.8,14.5l-7.2,4.4C17,60,1.7,51.4,0,50.5v4c0.1,0.1,14.3,8,15.2,8.6
				L1,71.7l0,0l-0.1,3.7c3.1,2.1,56,37.4,60.8,40.6l0.1-3.6c-1.2-0.8-13-8.7-25.9-17.3C35.9,95,54.1,84,61.3,79.6 M38.6,66.5
				l7.6-4.6l0,8.5c0,3.5,0,10.5,0,14.1c-1.1,0.6-5,3-5.9,3.6l0,0l-1.7,1L38.6,66.5z M25.4,88l7-4.3v-4.3L22,85.8
				c-2.5-1.7-4.9-3.3-7.1-4.8L36.1,68c0,7,0,15.6,0,22.6l-3.6,2.2C30.2,91.2,27.8,89.6,25.4,88"/>
		</g>
		<g>
			<path class="st2" d="M172.2,79.2l-6-8.6c-0.3,0-0.6,0-1.1,0h-6.6v8.6h-5.5V49.8H165c2.5,0,4.8,0.4,6.7,1.3c1.9,0.8,3.3,2,4.4,3.6
				c1,1.6,1.5,3.4,1.5,5.6c0,2.2-0.5,4.1-1.6,5.7s-2.6,2.8-4.6,3.6l6.8,9.7H172.2z M170.2,55.9c-1.2-1-3-1.5-5.4-1.5h-6.4v11.7h6.4
				c2.4,0,4.2-0.5,5.4-1.5c1.2-1,1.8-2.5,1.8-4.4C172,58.3,171.4,56.9,170.2,55.9z"/>
			<path class="st2" d="M210.8,74.6v4.6h-22.1V49.8h21.5v4.6h-16V62h14.2v4.5h-14.2v8.1H210.8z"/>
			<path class="st2" d="M240.9,72.4h-14.7l-2.9,6.8h-5.6l13.2-29.4h5.4l13.3,29.4h-5.7L240.9,72.4z M239.1,68.1l-5.5-12.9l-5.5,12.9
				H239.1z"/>
			<path class="st2" d="M258.4,49.8h5.5v24.8h15.4v4.6h-20.9V49.8z"/>
			<path class="st2" d="M288.6,49.8h5.5v29.4h-5.5V49.8z"/>
			<path class="st2" d="M313,54.4h-9.8v-4.6h25v4.6h-9.8v24.8H313V54.4z"/>
			<path class="st2" d="M349.7,68.8v10.4h-5.5V68.9l-11.6-19.1h5.8l8.6,14.3l8.7-14.3h5.4L349.7,68.8z"/>
		</g>
		<g>
			<path class="st2" d="M156,115.5c-1.7-0.6-3-1.4-4-2.4l1-2c0.9,0.9,2.1,1.6,3.6,2.2c1.5,0.6,3,0.8,4.6,0.8c2.2,0,3.9-0.4,5-1.2
				s1.7-1.9,1.7-3.2c0-1-0.3-1.8-0.9-2.4c-0.6-0.6-1.4-1.1-2.2-1.4c-0.9-0.3-2.1-0.7-3.7-1.1c-1.9-0.5-3.4-0.9-4.5-1.4
				c-1.1-0.4-2.1-1.1-2.9-2c-0.8-0.9-1.2-2.1-1.2-3.7c0-1.3,0.3-2.4,1-3.5c0.7-1,1.7-1.9,3.1-2.5c1.4-0.6,3.1-0.9,5.1-0.9
				c1.4,0,2.8,0.2,4.2,0.6c1.4,0.4,2.6,0.9,3.6,1.6l-0.9,2.1c-1-0.7-2.2-1.2-3.4-1.6c-1.2-0.3-2.4-0.5-3.5-0.5c-2.2,0-3.8,0.4-5,1.3
				c-1.1,0.8-1.7,1.9-1.7,3.3c0,1,0.3,1.8,0.9,2.4c0.6,0.6,1.4,1.1,2.3,1.4c0.9,0.3,2.2,0.7,3.7,1.1c1.8,0.5,3.3,0.9,4.5,1.3
				c1.1,0.4,2.1,1.1,2.9,2s1.2,2.1,1.2,3.6c0,1.3-0.3,2.4-1,3.4c-0.7,1-1.7,1.9-3.1,2.5c-1.4,0.6-3.1,0.9-5.2,0.9
				C159.5,116.4,157.7,116.1,156,115.5z"/>
			<path class="st2" d="M203.6,114.7c-2-1.1-3.6-2.6-4.7-4.6c-1.1-1.9-1.7-4.1-1.7-6.5c0-2.4,0.6-4.6,1.7-6.5
				c1.1-1.9,2.7-3.5,4.7-4.6c2-1.1,4.2-1.6,6.7-1.6c1.9,0,3.6,0.3,5.1,0.9c1.6,0.6,2.9,1.5,4,2.7l-1.7,1.7c-2-2-4.4-3-7.4-3
				c-2,0-3.8,0.5-5.4,1.4c-1.6,0.9-2.9,2.1-3.8,3.7c-0.9,1.6-1.4,3.3-1.4,5.3c0,2,0.5,3.7,1.4,5.3c0.9,1.6,2.2,2.8,3.8,3.7
				c1.6,0.9,3.4,1.4,5.4,1.4c3,0,5.5-1,7.4-3l1.7,1.7c-1.1,1.2-2.4,2.1-4,2.7c-1.6,0.6-3.3,0.9-5.2,0.9
				C207.8,116.4,205.6,115.8,203.6,114.7z"/>
			<path class="st2" d="M263.2,109.5h-13.9l-3,6.7h-2.8l11.4-25h2.6l11.4,25h-2.8L263.2,109.5z M262.2,107.3l-6-13.4l-6,13.4H262.2z
				"/>
			<path class="st2" d="M296.1,91.1h2.6v22.7h14v2.3h-16.7V91.1z"/>
			<path class="st2" d="M357.8,113.9v2.3h-17.7v-25h17.2v2.3h-14.5v8.9h12.9v2.3h-12.9v9.3H357.8z"/>
		</g>
	</g>
	<g>
		<g>
			<g id="XMLID_3_">
				<g>
					<g>
						<path class="st2" d="M470.8,80c-0.9,0.1-1.8,0.2-2.7,0.2c-0.4,0-0.8,0-1.3-0.1c-0.4,0-0.8-0.1-1.2-0.1c-0.4,0-0.8,0-1.2-0.1
							c-0.4,0-0.8-0.1-1.1-0.1c-0.6-0.1-1.1-0.1-1.7-0.1c-0.6,0-1.2,0-1.7,0c-0.2,0-0.4,0-0.6,0c-0.2,0-0.4,0-0.6,0
							c-0.2,0-0.4,0-0.6,0.1c-0.2,0-0.4,0.1-0.6,0.1c-0.4,0.1-0.5,0.3-0.5,0.5s0.1,0.4,0.2,0.6c0,0.1,0,0.1,0.1,0.2
							c0,0.1,0.1,0.1,0.1,0.2c0,0.1,0,0.1,0,0.2c0,0.1,0,0.1,0,0.2c-0.1,0.3-0.1,0.6-0.2,0.8c0,0.2-0.1,0.5-0.1,0.8
							c0,0.3,0,0.6,0.1,0.8c0,0.2,0.1,0.5,0.1,0.8c0,0.3,0,0.6,0.1,0.9c0,0.3,0.1,0.6,0.1,0.9c0,0.1,0,0.1,0,0.2c0,0.1,0,0.1,0,0.2
							c-0.1,0.4-0.1,0.9-0.2,1.4c0,0.5-0.1,1-0.3,1.5c-0.1,0.8-0.3,1.6-0.5,2.4c-0.2,0.8-0.4,1.5-0.7,2.3c-0.1,0.2-0.2,0.4-0.3,0.7
							c-0.1,0.2-0.2,0.5-0.4,0.8c-0.2,0.4-0.4,0.7-0.6,1.1c-0.2,0.4-0.3,0.8-0.3,1.2c-0.8,1.1-1.7,2.1-2.6,3c-1,0.9-2.1,1.6-3.4,2.1
							c-0.1,0.1-0.3,0.1-0.5,0.2c-0.2,0-0.4,0.1-0.6,0.1c-0.4,0.1-0.8,0.2-1.3,0.3c-0.4,0.1-0.9,0.1-1.4,0.1c-0.5,0-1-0.1-1.4-0.2
							c-0.4-0.1-0.8-0.3-1.3-0.7c-0.1-0.1-0.1-0.1-0.2-0.2c0,0-0.1-0.1-0.2-0.1c0-0.1,0-0.1-0.1-0.1c0,0-0.1,0-0.2-0.1
							c-0.2-0.1-0.4-0.3-0.7-0.6c-0.2-0.2-0.4-0.5-0.6-0.8c-0.5-0.5-0.9-1.1-1.2-1.7c-0.3-0.6-0.5-1.2-0.7-1.9
							c-0.1-0.3-0.1-0.6-0.2-0.8c-0.1-0.2-0.1-0.5-0.1-0.7c-0.1-0.6-0.2-1.2-0.3-1.8c-0.1-0.5-0.1-1.1-0.2-1.7c0-0.3,0-0.6,0-0.9
							c0-0.3,0-0.6,0-0.9c0-0.6,0-1.3,0.1-2c0-0.7,0.1-1.4,0.2-2.1c0.3-1,0.7-1.9,1.1-2.7c0.5-0.8,1.1-1.4,2-1.8
							c0.2,0,0.4-0.1,0.7-0.2c0.2-0.1,0.5-0.2,0.7-0.3c0.1-0.1,0.3-0.1,0.4-0.2c0.1-0.1,0.2-0.1,0.4-0.2c0.1-0.1,0.3-0.1,0.5-0.2
							c0.2,0,0.4-0.1,0.5-0.1c0.2,0,0.4,0.1,0.6,0.2c0.2,0.1,0.4,0.3,0.6,0.6v0.1v0.1c0,0.1,0,0.1,0,0.2c0,0.1,0,0.1,0.1,0.2
							c0,0.1,0,0.2,0,0.3c0,0.1,0,0.1,0,0.2c0,0.2,0,0.4-0.1,0.6c-0.1,0.2-0.2,0.3-0.4,0.5c-0.2,0.1-0.4,0.2-0.5,0.4
							c-0.1,0.2-0.3,0.3-0.4,0.5h-0.1c-0.1,0.2-0.3,0.4-0.4,0.5c-0.1,0.1-0.4,0.3-0.6,0.4c0,0.1,0,0.2,0,0.3c0,0.1,0,0.2,0.1,0.3
							c0,0.1,0,0.3,0,0.3c0,0.1,0,0.2,0,0.3c0,0.1,0,0.3,0,0.4c0,0.1,0,0.3-0.1,0.4c0,0.1,0,0.3-0.1,0.4c-0.1,0.1-0.1,0.3-0.2,0.4
							c0.1,0.1,0.2,0.2,0.2,0.4c0,0.2,0,0.3,0,0.5c0,0.1,0,0.2,0,0.3c0,0.1,0,0.3,0,0.3c-0.1,0.1-0.1,0.3-0.1,0.4c0,0.1,0,0.2,0,0.4
							c0,0.1,0,0.3,0.1,0.4c0,0.1,0.1,0.3,0.2,0.4c-0.2,0.2-0.3,0.4-0.3,0.6c0,0.2,0.1,0.4,0.3,0.5c0.1,0.2,0.1,0.4,0.2,0.6
							c0,0.2-0.1,0.4-0.3,0.6c0.3,1.1,0.7,2.3,1.2,3.3c0.5,1.1,1.2,2,2,2.9c0.3,0.2,0.5,0.4,0.8,0.4c0.2,0.1,0.5,0.1,0.8,0.1
							c0.1-0.1,0.3-0.3,0.4-0.4c0.1-0.1,0.3-0.2,0.4-0.3c0-0.1,0-0.1,0.1-0.1c0.4-0.2,0.7-0.5,0.9-0.7c0.2-0.3,0.4-0.6,0.4-1
							c0.1-0.1,0.2-0.3,0.3-0.4c0.1-0.1,0.1-0.3,0.2-0.5c0.1,0,0.1,0,0.1-0.1c0-0.1,0-0.1,0.1-0.2c0.1-0.2,0.2-0.4,0.3-0.6
							c0.1-0.2,0.2-0.3,0.4-0.5c0.1-0.4,0.3-0.8,0.4-1.2c0.1-0.4,0.2-0.8,0.3-1.1c0.1-0.4,0.2-0.7,0.3-1.1c0.1-0.4,0.1-0.8,0.1-1.2
							c0.2-0.1,0.3-0.3,0.4-0.5c0-0.2,0.1-0.3,0.1-0.5c0-0.1,0-0.3,0.1-0.5c0-0.2,0.2-0.3,0.4-0.4c-0.1-0.1-0.1-0.3-0.2-0.4
							c0-0.1-0.1-0.2-0.1-0.4c0-0.1,0-0.3,0-0.4c0-0.1,0-0.2,0-0.4c0-0.4,0-0.7,0.1-1c0-0.3,0.1-0.7,0.2-1c0.1-0.3,0.1-0.6,0.2-1
							c0-0.4,0.1-0.7,0.1-1c0-0.1,0-0.3,0-0.5c0-0.2,0-0.3-0.1-0.5c-0.1-0.4-0.2-0.7-0.3-1.1c0-0.4-0.1-0.8-0.1-1.2
							c0-0.3,0-0.5,0-0.7s0-0.4-0.1-0.6c0-0.1,0-0.2,0-0.3c0-0.1,0-0.2,0-0.3c0-0.2,0-0.4-0.1-0.6c0-0.2-0.1-0.4-0.2-0.5
							c-1.2-0.4-2.4-0.7-3.7-0.9c-1.3-0.2-2.5-0.5-3.8-0.7c-0.1-0.1-0.3-0.1-0.4-0.1c-0.1,0-0.3,0-0.5-0.1c-0.9-0.1-1.9-0.3-2.8-0.5
							c-1-0.2-1.9-0.4-2.8-0.6c-0.3-0.1-0.5-0.2-0.7-0.3c-0.2-0.1-0.5-0.2-0.7-0.3c-0.4-0.1-0.7-0.3-1.2-0.4
							c-0.4-0.1-0.8-0.2-1.3-0.2c-0.6-0.2-1.1-0.4-1.5-0.5c-0.4-0.1-0.8-0.2-1.2-0.4h-0.1c-0.4-0.1-0.9-0.3-1.3-0.4
							c-0.5-0.1-1-0.3-1.6-0.5c-0.1-0.1-0.3-0.1-0.4-0.2c-0.1,0-0.3-0.1-0.4-0.2c-0.1,0-0.3,0-0.5-0.1c-0.2-0.1-0.3-0.1-0.5-0.1
							c-0.8-0.3-1.7-0.6-2.6-1c-0.9-0.4-1.7-0.8-2.5-1.3c-0.1,0-0.4-0.1-0.9-0.2c-0.5-0.1-0.9-0.3-1.4-0.5c-0.1-0.1-0.3-0.1-0.4-0.2
							c-0.1-0.1-0.3-0.1-0.4-0.1c-0.4-0.2-0.7-0.4-1-0.5c-0.3-0.1-0.5-0.2-0.5-0.3c-0.2,0-0.5-0.1-1-0.3c-0.5-0.2-1-0.4-1.5-0.6
							c-0.1-0.1-0.2-0.1-0.3-0.2c-0.1,0-0.2-0.1-0.3-0.2c-0.5-0.2-0.9-0.4-1.3-0.6c-0.4-0.2-0.6-0.4-0.7-0.5c-0.6,0-1.2-0.1-1.7-0.4
							c-0.5-0.3-1-0.6-1.5-1h-0.1c-0.3-0.2-0.6-0.4-0.8-0.6c-0.3-0.2-0.6-0.3-1-0.5c-0.1-0.1-0.3-0.1-0.5-0.2
							c-0.2-0.1-0.4-0.1-0.6-0.2c-0.6-0.4-1.3-0.7-2-1.1c-0.7-0.4-1.3-0.8-1.9-1.3c-0.5-0.1-0.9-0.2-1.3-0.5c-0.4-0.3-0.8-0.6-1.1-1
							c-0.1-0.1-0.3-0.3-0.4-0.4c-0.1-0.1-0.2-0.2-0.4-0.4c-0.3,0.1-0.5,0-0.8-0.1c-0.2-0.1-0.5-0.3-0.7-0.5
							c-0.2-0.2-0.4-0.4-0.6-0.5c-0.2-0.1-0.4-0.2-0.6-0.2c-0.1-0.3-0.3-0.5-0.5-0.6c-0.2-0.1-0.5-0.3-0.7-0.4h-0.1v-0.1
							c-0.3-0.1-0.5-0.2-0.7-0.3c-0.2-0.1-0.4-0.3-0.5-0.5c-0.1-0.1-0.2-0.3-0.5-0.6c-0.2-0.2-0.5-0.5-0.8-0.7
							c-0.1-0.1-0.1-0.1-0.2-0.2c-0.1-0.1-0.1-0.1-0.2-0.2c-0.4-0.3-0.7-0.5-1-0.7c-0.3-0.2-0.5-0.3-0.6-0.3
							c-0.3-0.4-0.6-0.7-0.9-1.1c-0.3-0.4-0.7-0.7-1-1.1c-0.8-0.8-1.5-1.6-2.2-2.4c-0.7-0.8-1.1-1.7-1.4-2.6
							c-0.1-0.1-0.3-0.3-0.4-0.6c-0.1-0.2-0.2-0.5-0.3-0.8c-0.1-0.2-0.1-0.4-0.2-0.5c0-0.1-0.1-0.3-0.2-0.4c0-0.1,0-0.2,0.1-0.3
							c0-0.1,0.1-0.2,0.1-0.3c0-0.1,0-0.2,0-0.3c0-0.1,0-0.2,0-0.3c0-0.2,0-0.4,0-0.6s0-0.4,0-0.5c-0.1-0.3-0.1-0.5-0.1-0.7
							c0-0.2,0.1-0.4,0.3-0.6c0.2-0.8,0.5-1.5,1-2.2c0.5-0.7,1-1.3,1.5-1.8c0.2-0.1,0.4-0.3,0.7-0.4c0.2-0.1,0.5-0.2,0.7-0.4
							c0.3-0.1,0.5-0.2,0.8-0.3c0.2-0.1,0.5-0.2,0.7-0.3c0.2-0.1,0.4-0.3,0.6-0.4c0.2-0.1,0.4-0.2,0.6-0.3c0.6-0.2,1.1-0.4,1.7-0.6
							c0.6-0.2,1.2-0.3,1.7-0.5c0.8-0.2,1.7-0.4,2.6-0.5c0.9-0.1,1.8-0.2,2.7-0.2c0.1,0,0.2,0,0.3,0c0.1,0,0.3,0,0.4,0
							c0.1,0.1,0.2,0.1,0.3,0.1c0.1,0,0.3,0,0.4,0c0.1,0,0.2,0,0.3,0c0.1,0,0.2,0,0.3,0c0.1,0,0.2,0,0.3,0s0.2,0,0.3,0
							c0.1,0,0.3,0,0.5,0c0.2,0,0.3,0,0.5,0c0.2,0,0.4,0,0.6,0c0.2,0,0.3,0,0.5,0c0.1,0,0.3,0,0.4,0c0.1,0,0.3,0,0.4,0
							c0.2,0,0.4,0,0.5,0.1c0.1,0,0.3,0.1,0.4,0.1c0.2,0.1,0.5,0.1,0.9,0.2c0.4,0.1,0.8,0.1,1.2,0.2c0.1,0,0.1,0,0.2,0
							c0,0,0.1,0,0.2,0c0.4,0.1,0.8,0.1,1.2,0.2c0.4,0,0.7,0.1,0.8,0.3c0.1,0.1,0.3,0.1,0.5,0.2c0.2,0,0.4,0.1,0.6,0.1
							c0.2,0.1,0.5,0.1,0.8,0.2c0.3,0.1,0.6,0.1,0.9,0.1c0.6,0.1,1.1,0.3,1.7,0.4c0.6,0.1,1.1,0.3,1.5,0.5c0.4,0.1,0.8,0.2,1.2,0.3
							c0.4,0.1,0.8,0.2,1.2,0.4c0.2,0.1,0.4,0.1,0.7,0.2c0.2,0.1,0.5,0.1,0.8,0.2c0.3,0.3,0.6,0.5,1,0.6c0.4,0.1,0.8,0.2,1.1,0.3
							c0.4,0.1,0.8,0.3,1.2,0.4c0.4,0.1,0.7,0.4,1,0.6c0.4,0,0.7,0.1,1,0.3c0.3,0.2,0.6,0.3,0.8,0.5c0.1,0.1,0.1,0.1,0.2,0.2
							c0,0,0.1,0.1,0.2,0.1c0.2,0.2,0.5,0.4,0.8,0.6c0.3,0.2,0.7,0.3,1,0.4c0.4,0,0.7,0.1,0.9,0.3c0.2,0.2,0.5,0.4,0.7,0.6l0.1,0.1
							c0.2,0.2,0.5,0.4,0.7,0.6c0.3,0.2,0.6,0.4,1,0.4c0.2,0.1,0.4,0.3,0.7,0.4c0.2,0.1,0.5,0.3,0.8,0.4c0.1,0.1,0.1,0.1,0.2,0.1
							c0,0,0.1,0,0.2,0.1c0.3,0.1,0.6,0.3,0.9,0.5c0.3,0.2,0.6,0.4,0.9,0.7c0.8,0.4,1.5,0.8,2.3,1.3c0.7,0.5,1.4,1.2,2,2
							c0.1,0.1,0.2,0.1,0.3,0.2c0.1,0,0.2,0.1,0.3,0.1l0.1,0.1c0.4,0.1,0.7,0.3,0.9,0.5c0.2,0.2,0.4,0.5,0.4,0.9
							c0.7,0.2,1.3,0.6,1.9,1.1c0.6,0.5,1.1,1.1,1.6,1.7c0.1,0.1,0.1,0.2,0.2,0.2c0.3,0.4,0.6,0.7,0.9,1.1c0.3,0.4,0.7,0.7,1,1
							c0.1,0.2,0.3,0.4,0.4,0.6c0.1,0.2,0.3,0.4,0.4,0.6c0.3,0.5,0.6,1,0.8,1.4c0.3,0.5,0.6,1,0.8,1.7c0.6,0.6,1.1,1.1,1.4,1.6
							c0.3,0.5,0.6,1,0.9,1.4c0,0.1,0,0.1,0.1,0.2c0,0.1,0.1,0.1,0.2,0.2c0.1,0.2,0.2,0.4,0.3,0.6c0.1,0.2,0.2,0.3,0.3,0.5v0.1v0.1
							c0,0.2,0,0.4,0.1,0.6c0.1,0.2,0.2,0.4,0.3,0.6c0.1,0.1,0.1,0.2,0.2,0.2c0.1,0.2,0.3,0.4,0.4,0.7c0.1,0.3,0.2,0.6,0.2,0.9
							c0,0.1,0,0.1,0,0.2c0.1,0.1,0.1,0.1,0.2,0.2c0,0.1,0.1,0.1,0.2,0.2c0.2,0.4,0.4,0.9,0.6,1.3c0.2,0.5,0.3,0.9,0.4,1.4
							c0.2,0.3,0.4,0.6,0.4,1c0.1,0.4,0.1,0.8,0.2,1.1c0,0.1,0,0.1,0,0.2c0,0.1,0,0.1,0,0.2c0.1,0.4,0.1,0.7,0.2,1
							c0.1,0.3,0.2,0.6,0.3,0.9c0,0.3,0,0.6,0.1,0.9c0.1,0.3,0.1,0.6,0.1,0.9c0.1,0.4,0.2,0.7,0.3,1c0.1,0.3,0.2,0.6,0.3,0.9
							l0.7,0.4c0.4,0.1,0.7,0.1,1.1,0.2c0.4,0,0.7,0.1,1.1,0.2c0.4,0.1,0.9,0.1,1.3,0.2c0.5,0.1,0.9,0.2,1.3,0.3
							c0.6,0.1,1.1,0.2,1.7,0.3c0.6,0.1,1.1,0.2,1.7,0.3c1.1,0.2,2.1,0.4,3.2,0.4c1.1,0.1,2.1,0.1,3.1,0.1c0.1,0,0.1,0,0.2,0.1
							c0,0,0.1,0.1,0.2,0.1c0.1,0,0.1,0,0.2,0c0.1,0,0.3,0,0.4,0s0.2,0,0.3,0c0.1,0,0.1,0,0.2,0.1c0,0,0.1,0.1,0.1,0.2
							c0,0.1,0,0.1-0.1,0.2C472.5,79.7,471.7,79.9,470.8,80z M450.9,71.7c-0.4-1.5-0.9-3-1.4-4.3c0-0.5-0.1-1-0.3-1.4
							c-0.2-0.4-0.4-0.9-0.6-1.3c-0.1-0.4-0.3-0.7-0.4-1.1c-0.1-0.4-0.2-0.7-0.3-1.1c0-0.1,0-0.1,0-0.2c0,0,0-0.1,0-0.2
							c0-0.2-0.1-0.4-0.2-0.6c-0.1-0.2-0.3-0.3-0.5-0.5c-0.1-0.2-0.3-0.4-0.4-0.7c-0.1-0.2-0.2-0.5-0.2-0.8c0-0.1,0-0.1,0-0.2
							c0,0,0-0.1,0-0.2c-0.3-0.1-0.5-0.4-0.8-0.6c-0.2-0.3-0.4-0.6-0.6-1c-0.1,0-0.1,0-0.1-0.1c0,0,0-0.1-0.1-0.2
							c-0.1-0.2-0.3-0.4-0.5-0.7c-0.2-0.2-0.4-0.4-0.6-0.6c-0.1-0.4-0.3-0.7-0.6-1c-0.2-0.3-0.5-0.6-0.7-0.9
							c-0.1-0.1-0.2-0.2-0.3-0.3c-0.1-0.1-0.1-0.1-0.2-0.2c-0.1-0.2-0.3-0.4-0.4-0.6c-0.1-0.2-0.3-0.4-0.4-0.6
							c-0.4-0.4-0.8-0.7-1.1-1.1c-0.3-0.4-0.7-0.8-1-1.2c-0.1-0.1-0.1-0.1-0.2-0.2c0,0-0.1-0.1-0.1-0.2c-0.5-0.6-1-1.1-1.4-1.6
							c-0.4-0.5-0.9-0.9-1.4-1.3c-0.4-0.3-0.7-0.6-1.1-0.8c-0.4-0.2-0.7-0.5-1-0.7c-0.1-0.1-0.2-0.2-0.3-0.3
							c-0.1-0.1-0.2-0.2-0.3-0.3c-0.6-0.4-1.1-0.9-1.7-1.3c-0.6-0.4-1.2-0.8-1.8-1.2c-1.4-1-2.9-1.9-4.3-2.8c-1.5-0.9-3-1.7-4.6-2.3
							c-0.5-0.1-1-0.2-1.4-0.4c-0.5-0.2-0.9-0.4-1.2-0.6c-0.1,0-0.1,0-0.1-0.1c0,0,0-0.1-0.1-0.1c-0.3-0.1-0.6-0.3-0.9-0.5
							c-0.3-0.2-0.7-0.3-1-0.4c-0.3-0.1-0.5-0.1-0.8-0.2c-0.2,0-0.5-0.1-0.8-0.2c-0.6-0.1-1.1-0.3-1.6-0.5c-0.5-0.2-1-0.3-1.5-0.5
							l-6.3-1.2c-0.3-0.1-0.7-0.1-1.1-0.2c-0.5,0-0.9-0.1-1.4-0.2c-0.1,0-0.2,0-0.3,0c-0.5-0.1-1-0.1-1.5-0.2
							c-0.5,0-0.9-0.1-1.2-0.2c-1.8,0-3.6,0.2-5.4,0.5c-1.8,0.3-3.4,0.9-5,1.7c-0.1,0.1-0.2,0.2-0.3,0.3c-0.1,0.1-0.2,0.2-0.4,0.3
							c0,0.1,0,0.1-0.1,0.2c0,0-0.1,0.1-0.2,0.1c-0.4,0.4-0.8,0.8-1.1,1.2c-0.3,0.4-0.5,0.9-0.5,1.4c-0.1,0.3-0.1,0.5-0.1,0.7
							c0,0.2,0,0.4,0,0.6c0,0.5,0.1,0.9,0.2,1.3c0.1,0.4,0.2,0.7,0.3,1c0,0.1,0,0.1,0.1,0.1c0.1,0.2,0.1,0.4,0.2,0.7
							c0.1,0.3,0.1,0.5,0.1,0.8c0.3,0.4,0.6,0.7,0.8,1.1c0.3,0.4,0.6,0.7,0.8,1.1c0.1,0.3,0.3,0.6,0.5,0.8c0.2,0.2,0.4,0.5,0.6,0.8
							c0.3,0.5,0.6,1,0.9,1.4c0.3,0.4,0.7,0.9,1,1.3c0.4,0.2,0.7,0.4,1,0.7c0.3,0.2,0.6,0.5,0.8,0.7c0.1,0.1,0.1,0.1,0.2,0.2
							c0,0,0.1,0.1,0.2,0.2c0.2,0.2,0.4,0.4,0.6,0.6s0.5,0.4,0.7,0.5c0.2,0.4,0.5,0.7,0.7,1c0.3,0.3,0.6,0.6,1,0.8
							c0.4,0.1,0.8,0.2,1.2,0.5c0.4,0.3,0.7,0.6,1.1,0.9c0.1,0,0.1,0,0.1,0.1c0.2,0.1,0.4,0.3,0.6,0.4c0.2,0.1,0.4,0.3,0.6,0.4
							c0.5,0.4,1,0.8,1.5,1.1c0.5,0.3,1,0.6,1.6,0.9c0.1,0.1,0.3,0.2,0.5,0.3c0.2,0.1,0.4,0.2,0.6,0.3c0.1,0.1,0.3,0.2,0.4,0.3
							c0.1,0.1,0.2,0.2,0.3,0.4c0,0.1,0,0.1,0.1,0.2c0.1,0.2,0.3,0.4,0.4,0.5c0.1,0.1,0.4,0.1,0.6,0.1c0.2,0.3,0.4,0.5,0.7,0.6
							c0.2,0.1,0.5,0.2,0.8,0.3c0.1,0,0.1,0,0.2,0c0.1,0,0.1,0,0.2,0.1c0.1,0,0.3,0,0.4,0.1c0.1,0.1,0.3,0.1,0.4,0.2
							c0.4,0.1,0.7,0.2,1,0.4c0.3,0.2,0.6,0.4,0.8,0.6c0.1,0,0.1,0,0.2,0c0,0,0.1,0,0.1,0.1c0.3,0.1,0.5,0.3,0.8,0.4
							c0.2,0.1,0.5,0.3,0.9,0.4c0.2,0.3,0.5,0.5,0.7,0.6c0.3,0.1,0.6,0.2,0.8,0.4h0.1c0.3,0.1,0.6,0.2,0.8,0.3
							c0.3,0.1,0.5,0.4,0.7,0.6c0.5,0.1,1,0.2,1.4,0.4c0.5,0.2,0.9,0.4,1.4,0.6c0,0.1,0,0.1,0.1,0.1c0.3,0.1,0.6,0.3,0.9,0.4
							c0.3,0.1,0.7,0.2,1,0.4c0.4,0.2,0.8,0.4,1.3,0.5c0.4,0.1,0.9,0.3,1.4,0.4c0.1,0.1,0.2,0.1,0.3,0.2c0.1,0,0.2,0.1,0.3,0.1
							c0.8,0.2,1.5,0.5,2.3,0.7c0.7,0.3,1.4,0.7,2.1,1.2c1.2,0.2,2.4,0.5,3.5,0.9c1.2,0.4,2.3,0.8,3.4,1.2c0.1,0.1,0.3,0.1,0.4,0.2
							c0.1,0,0.3,0.1,0.4,0.2c0.3,0,0.6,0.1,0.9,0.2c0.3,0.1,0.6,0.2,0.9,0.4c0.6,0.1,1.3,0.2,1.9,0.4c0.6,0.2,1.3,0.3,1.9,0.5
							c0.4,0.1,0.8,0.3,1.3,0.4c0.4,0.1,0.8,0.2,1.2,0.3c0.5,0.1,1,0.1,1.5,0.2c0.5,0.1,1.1,0.1,1.6,0.2c0.6,0.1,1.1,0.1,1.6,0.2
							c0.5,0.1,1,0.1,1.5,0.2C451.6,74.8,451.3,73.3,450.9,71.7z"/>
					</g>
				</g>
			</g>
			<g>
				<g>
					<path class="st2" d="M477.3,116.5h-97.8V18.7h97.8V116.5z M381.5,114.5h93.7V20.8h-93.7V114.5z"/>
				</g>
			</g>
		</g>
		<g>
			<path class="st2" d="M380.1,14.6V0h5c1.6,0,2.9,0.3,3.8,1s1.3,1.6,1.3,3c0,0.7-0.2,1.3-0.5,1.8c-0.4,0.5-0.9,0.9-1.6,1.2
				c0.8,0.2,1.4,0.6,1.8,1.2c0.4,0.6,0.6,1.3,0.6,2.1c0,1.4-0.4,2.4-1.3,3.2c-0.9,0.7-2.1,1.1-3.8,1.1H380.1z M382.6,6.1h2.5
				c0.8,0,1.4-0.2,1.8-0.5c0.4-0.4,0.7-0.9,0.7-1.5c0-0.7-0.2-1.2-0.6-1.6c-0.4-0.3-1-0.5-1.9-0.5h-2.5V6.1z M382.6,8v4.6h2.8
				c0.8,0,1.4-0.2,1.9-0.6c0.4-0.4,0.7-0.9,0.7-1.6c0-1.5-0.8-2.3-2.3-2.3H382.6z"/>
			<path class="st2" d="M397.2,6.9l3.4-6.9h2.8l-4.9,9.2v5.4H396V9.2L391.1,0h2.8L397.2,6.9z"/>
		</g>
	</g>
</g>
</svg>
